<svg xmlns="http://www.w3.org/2000/svg" viewBox="0 0 21.71 21.4"><defs><style>.cls-1{fill:#231f20;}.cls-2{fill:#ac752a;}</style></defs><title>svg-nav-menu</title><g id="Layer_2" data-name="Layer 2"><g id="Layer_1-2" data-name="Layer 1"><line class="cls-1" x1="0.48" y1="7.62" x2="21.23" y2="0.51"/><path class="cls-2" d="M.61,8.1l7-2.4L18.8,1.87,21.36,1c.61-.2.35-1.17-.26-1l-7,2.4L2.91,6.26.34,7.13c-.6.21-.34,1.18.27,1Z"/><line class="cls-1" x1="0.48" y1="14.44" x2="21.23" y2="7.33"/><path class="cls-2" d="M.61,14.92l7-2.4L18.8,8.69l2.56-.88c.61-.21.35-1.17-.26-1l-7,2.4L2.91,13.07.34,14c-.6.21-.34,1.18.27,1Z"/><line class="cls-1" x1="0.48" y1="20.89" x2="21.23" y2="13.78"/><path class="cls-2" d="M.61,21.37l7-2.4L18.8,15.14l2.56-.88c.61-.2.35-1.17-.26-1l-7,2.4L2.91,19.53l-2.57.88c-.6.2-.34,1.17.27,1Z"/></g></g></svg>